<?xml version="1.0" encoding="UTF-8"?>
<svg id="Layer_2" data-name="Layer 2" xmlns="http://www.w3.org/2000/svg" viewBox="0 0 776.45 121.77">
  <defs>
    <style>
      .cls-1 {
        fill: #33c;
      }
    </style>
  </defs>
  <g id="Layer_1-2" data-name="Layer 1">
    <g>
      <g>
        <path class="cls-1" d="M267.42,88.41l22.99-2.08c2.31,11.42,8.95,16.36,25.23,16.36,13.12,0,20.75-5.4,20.75-13.89,0-8.02-4.86-11.03-17.51-13.42l-15.43-2.85c-21.76-4.09-33.1-14.27-33.1-32.63,0-20.75,15.28-33.02,43.36-33.02,29.62,0,43.28,11.03,45.52,32.56l-22.76,2.01c-2.01-11.65-7.56-16.2-22.61-16.2-12.81,0-20.13,4.47-20.13,13.04,0,8.02,4.86,12.04,17.67,14.2l14.58,2.62c23.84,4.24,33.79,13.58,33.79,32.09,0,21.06-15.82,33.87-44.82,33.87-31.24,0-45.83-10.96-47.52-32.63Z"/>
        <path class="cls-1" d="M372.98,12.42c0-8.33,5.4-12.42,13.96-12.42s13.73,4.09,13.73,12.42-5.4,12.58-13.73,12.58-13.96-4.24-13.96-12.58ZM375.14,36.8h23.14v81.93h-23.14V36.8Z"/>
        <path class="cls-1" d="M416.89,36.8h20.21l2.47,15.2h.93c5.32-10.57,13.58-17.51,27.16-17.51,14.66,0,22.37,7.17,25.15,18.36h.93c5.4-10.57,13.04-18.36,28.16-18.36,18.28,0,26.54,11.26,26.54,29.93v54.31h-23.14v-47.68c0-10.72-4.01-16.43-13.04-16.43-10.26,0-18.05,7.95-18.05,20.14v43.97h-23.14v-47.68c0-10.72-3.93-16.43-12.96-16.43-10.34,0-18.05,7.95-18.05,20.14v43.97h-23.14V36.8Z"/>
        <path class="cls-1" d="M589.09,104.3h-.93l-2.31,14.43h-20.21V3.01h23.14v46.75h.93c3.86-9.33,11.88-15.28,25.23-15.28,21.6,0,34.18,16.12,34.18,43.2s-12.58,43.36-33.79,43.36c-13.81,0-21.76-6.71-26.23-16.74ZM625.66,77.69c0-16.66-5.79-24.84-18.67-24.84s-18.52,9.1-18.52,24.84,5.63,25,18.52,25,18.67-8.18,18.67-25Z"/>
        <path class="cls-1" d="M681.15,84.32c1.39,13.58,7.64,19.75,19.06,19.75,9.57,0,14.27-3.63,16.43-9.88l21.76,2.01c-3.93,15.51-14.66,24.84-38.57,24.84-27.7,0-42.12-16.12-42.12-43.2s15.74-43.67,41.43-43.67,40.35,14.81,40.35,40.12v10.03h-58.32ZM681.22,69.59h35.95c-.85-12.27-6.33-18.59-17.82-18.59-10.8,0-16.66,5.79-18.13,18.59Z"/>
        <path class="cls-1" d="M753.3,3.01h23.14v115.72h-23.14V3.01Z"/>
      </g>
      <path class="cls-1" d="M206.28,93.31c6.78-6.6,10.52-15.37,10.52-24.7s-3.74-18.1-10.52-24.7c-6.78-6.6-15.8-10.23-25.4-10.23s-18.61,3.63-25.4,10.23l-76.93,74.81h35.22l59.32-57.69c2.08-2.02,4.85-3.14,7.79-3.14s5.71,1.11,7.79,3.14c2.08,2.02,3.23,4.71,3.23,7.57s-1.15,5.55-3.23,7.57l-43.75,42.54h35.22l26.14-25.42Z"/>
      <path class="cls-1" d="M102.72,37.02l-59.03,57.4c-2.08,2.02-4.85,3.14-7.79,3.14s-5.71-1.11-7.79-3.14c-4.29-4.18-4.29-10.97,0-15.15l43.45-42.25h-35.22l-25.84,25.13c-14,13.62-14,35.78,0,49.39,6.78,6.6,15.8,10.23,25.4,10.23s18.61-3.63,25.4-10.23l76.64-74.52h-35.22Z"/>
    </g>
  </g>
</svg>