<?xml version="1.0" encoding="UTF-8"?>
<svg id="Layer_2" data-name="Layer 2" xmlns="http://www.w3.org/2000/svg" viewBox="0 0 800 118">
  <defs>
    <style>
      .cls-1 {
        fill: #33c;
      }
    </style>
  </defs>
  <g id="Layer_1-2" data-name="Layer 1">
    <g>
      <path class="cls-1" d="M313.97,49.64l-8.66-.75c-12.95-.94-14.88-8.26-14.88-12.54,0-6.34,4.51-13.75,17.23-13.75s17.98,7.5,18.16,15.04h24.01c-.18-21.65-16.3-35.08-42.17-35.08-12.34,0-22.72,3.14-30.02,9.09-7.34,5.98-11.22,14.52-11.22,24.7,0,19.04,13.69,31.5,36.63,33.34l8.51.75c13.63,1.19,19.98,5.23,19.98,12.7,0,9.04-8.44,14.65-22.03,14.65-7.58,0-13.47-1.62-17.5-4.82-3.47-2.75-5.35-6.54-5.45-10.98h-23.86c.19,22.11,18.09,35.83,46.81,35.83,13.9,0,25.55-3.28,33.71-9.49,8.07-6.14,12.33-14.86,12.33-25.2,0-18.74-15.55-31.26-41.58-33.49Z"/>
      <polygon class="cls-1" points="374.79 114.96 398.8 114.96 398.8 33.25 363.5 33.25 363.5 50.27 374.79 50.27 374.79 114.96"/>
      <path class="cls-1" d="M384.01,24.4c8.41,0,13.24-4.42,13.24-12.12s-4.83-12.28-13.24-12.28-13.24,4.47-13.24,12.28,4.83,12.12,13.24,12.12Z"/>
      <path class="cls-1" d="M518.04,30.69h-1.08c-12.83,0-21.51,5.89-25.79,17.51l-.36.97-.34-.97c-4.14-11.62-12.76-17.51-25.64-17.51h-1.08c-14.79,0-23.94,7.75-27.17,23.03l-.74,3.47v-23.95h-18.9v81.72h24.01v-47.48c0-9.72,5.85-16.01,14.91-16.01s14.14,5.96,14.14,15.56v47.93h24.16v-47.48c0-9.72,5.79-16.01,14.76-16.01s14.29,5.96,14.29,15.56v47.93h24.01v-46.57c0-24.66-10.09-37.7-29.18-37.7Z"/>
      <path class="cls-1" d="M617.88,30.84c-12.7,0-22.54,5.3-28.45,15.31l-.69,1.18V5.87h-24.01v109.09h18.9v-19.82l.72,1.85c5.18,13.33,16.59,20.68,32.14,20.68,23.01,0,39.08-17.3,39.08-42.06v-3.31c0-11.72-3.64-22.27-10.24-29.7-6.83-7.69-16.32-11.76-27.45-11.76ZM609.99,98.23c-5.52,0-10.99-1.99-15-5.47-3.14-2.71-6.87-7.58-6.87-15.35v-5.57c0-14.26,11.01-21.72,21.88-21.72,12.81,0,21.41,9.58,21.41,23.83s-8.8,24.28-21.41,24.28Z"/>
      <path class="cls-1" d="M709.17,30.39c-28.09,0-42.79,21.24-42.79,42.21v3.01c0,20.98,15.02,42.21,43.72,42.21,20.3,0,35.31-10.6,39.3-27.71h-22.02c-2.27,5.56-8.7,8.88-17.27,8.88-12.02,0-19.26-6.4-20.94-18.52l-.06-.41h61.93v-7.76c0-28.8-21.7-41.91-41.86-41.91ZM689.24,67.09l.08-.42c2.06-11.41,8.93-17.45,19.86-17.45s17.32,6.2,19.09,17.46l.07.42h-39.09Z"/>
      <polygon class="cls-1" points="788.71 5.87 764.7 5.87 764.7 114.96 800 114.96 800 97.93 788.71 97.93 788.71 5.87"/>
      <path class="cls-1" d="M203.28,89.54c6.78-6.6,10.52-15.37,10.52-24.7s-3.74-18.1-10.52-24.7c-6.78-6.6-15.8-10.23-25.4-10.23s-18.61,3.63-25.4,10.23l-76.93,74.81h35.22l59.32-57.69c2.08-2.02,4.85-3.14,7.79-3.14s5.71,1.11,7.79,3.14c2.08,2.02,3.23,4.71,3.23,7.57s-1.15,5.55-3.23,7.57l-43.75,42.54h35.22l26.14-25.42Z"/>
      <path class="cls-1" d="M102.72,33.25l-59.03,57.4c-2.08,2.02-4.85,3.14-7.79,3.14s-5.71-1.11-7.79-3.14c-4.29-4.18-4.29-10.97,0-15.15l43.45-42.25h-35.22l-25.84,25.13c-14,13.62-14,35.78,0,49.39,6.78,6.6,15.8,10.23,25.4,10.23s18.61-3.63,25.4-10.23l76.64-74.52h-35.22Z"/>
    </g>
  </g>
</svg>