<svg width="179" height="28" viewBox="0 0 179 28" fill="none" xmlns="http://www.w3.org/2000/svg">
<path d="M61.6504 20.3292L66.9505 19.8509C67.483 22.4768 69.0138 23.6127 72.767 23.6127C75.7917 23.6127 77.5507 22.3711 77.5507 20.4188C77.5507 18.5747 76.4303 17.8826 73.5139 17.333L69.9567 16.6777C64.9402 15.7372 62.3259 13.3964 62.3259 9.1747C62.3259 4.40341 65.8485 1.58203 72.322 1.58203C79.1506 1.58203 82.2998 4.11829 82.8162 9.06893L77.5691 9.53111C77.1057 6.85229 75.8262 5.80606 72.3566 5.80606C69.4034 5.80606 67.7159 6.8339 67.7159 8.8045C67.7159 10.6486 68.8363 11.573 71.7895 12.0697L75.1508 12.6721C80.6468 13.6471 82.9407 15.7947 82.9407 20.0509C82.9407 24.8935 79.2936 27.8391 72.6079 27.8391C65.4059 27.8391 62.0423 25.3189 61.6527 20.3361L61.6504 20.3292Z" fill="white"/>
<path d="M85.9863 2.85587C85.9863 0.940461 87.2312 0 89.2047 0C91.1781 0 92.37 0.940461 92.37 2.85587C92.37 4.77129 91.125 5.74854 89.2047 5.74854C87.2843 5.74854 85.9863 4.77359 85.9863 2.85587ZM86.4843 8.46185H91.819V27.301H86.4843V8.46185Z" fill="white"/>
<path d="M96.1104 8.46183H100.77L101.339 11.9569H101.553C102.78 9.52646 104.684 7.93066 107.815 7.93066C111.195 7.93066 112.972 9.57934 113.613 12.1524H113.827C115.072 9.72191 116.834 7.93066 120.319 7.93066C124.534 7.93066 126.438 10.5198 126.438 14.8128V27.3009H121.103V16.3373C121.103 13.8724 120.179 12.5594 118.097 12.5594C115.732 12.5594 113.936 14.3874 113.936 17.1904V27.3009H108.601V16.3373C108.601 13.8724 107.695 12.5594 105.613 12.5594C103.229 12.5594 101.452 14.3874 101.452 17.1904V27.3009H96.1173V8.46183H96.1104Z" fill="white"/>
<path d="M135.808 23.9829H135.594L135.062 27.301H130.402V0.692139H135.737V11.4419H135.951C136.841 9.29655 138.69 7.9284 141.768 7.9284C146.748 7.9284 149.648 11.6351 149.648 17.8619C149.648 24.0887 146.748 27.8321 141.858 27.8321C138.674 27.8321 136.841 26.2892 135.811 23.9829H135.808ZM144.239 17.8642C144.239 14.0334 142.904 12.1524 139.935 12.1524C136.966 12.1524 135.666 14.2449 135.666 17.8642C135.666 21.4835 136.963 23.6127 139.935 23.6127C142.907 23.6127 144.239 21.7318 144.239 17.8642Z" fill="white"/>
<path d="M157.032 19.3887C157.352 22.5113 158.793 23.93 161.426 23.93C163.632 23.93 164.716 23.0953 165.214 21.6582L170.23 22.1204C169.324 25.6868 166.85 27.8321 161.338 27.8321C154.952 27.8321 151.628 24.1255 151.628 17.8987C151.628 11.6718 155.257 7.85712 161.179 7.85712C167.102 7.85712 170.481 11.2626 170.481 17.0824V19.3887H157.036H157.032ZM157.048 16.0016H165.336C165.14 13.1803 163.876 11.727 161.228 11.727C158.738 11.727 157.387 13.0584 157.048 16.0016Z" fill="white"/>
<path d="M173.665 0.692139H179V27.301H173.665V0.692139Z" fill="white"/>
<path d="M47.5561 21.4559C49.1192 19.9382 49.9814 17.9217 49.9814 15.7763C49.9814 13.631 49.1192 11.6144 47.5561 10.0967C45.9931 8.57913 43.9136 7.74445 41.7005 7.74445C39.4873 7.74445 37.4101 8.57913 35.8448 10.0967L18.1094 27.2987H26.229L39.9046 14.0333C40.3841 13.5689 41.0227 13.3113 41.7005 13.3113C42.3782 13.3113 43.0168 13.5666 43.4964 14.0333C43.9759 14.4978 44.241 15.1164 44.241 15.774C44.241 16.4316 43.9759 17.0502 43.4964 17.5147L33.4103 27.2964H41.5299L47.5561 21.4513V21.4559Z" fill="white"/>
<path d="M23.681 8.51245L10.0723 21.7111C9.59274 22.1756 8.95414 22.4331 8.27636 22.4331C7.59857 22.4331 6.95998 22.1779 6.48046 21.7111C5.49144 20.7499 5.49144 19.1886 6.48046 18.2275L16.4974 8.51245H8.3778L2.42066 14.2909C-0.806887 17.4227 -0.806887 22.5182 2.42066 25.6477C3.98372 27.1653 6.06318 28 8.27636 28C10.4895 28 12.5667 27.1653 14.1321 25.6477L31.8006 8.51245H23.681Z" fill="white"/>
</svg>
